{"title":"Goosebumps.2015.HDCAM.HQMic.XVID.AC3.Hive-CM8","uid":12629620,"size":1493932963,"categoryP":"video","categoryS":"movies","magnet":"?xt=urn:btih:e94f598df6196b6d22dd40cca495e232b1b12552&amp;dn=Goosebumps.2015.HDCAM.HQMic.XVID.AC3.Hive-CM8&amp;tr=udp%3A%2F%2Ftracker.leechers-paradise.org%3A6969&amp;tr=udp%3A%2F%2Fzer0day.ch%3A1337&amp;tr=udp%3A%2F%2Fopen.demonii.com%3A1337&amp;tr=udp%3A%2F%2Ftracker.coppersurfer.tk%3A6969&amp;tr=udp%3A%2F%2Fexodus.desync.com%3A6969","seeders":0,"leechers":1,"uploader":"TvTeam","files":4,"time":1445819394,"description":"------------------------------------------------------------------------\r\n\r  https://www.torrenting.com\r\n\r\nSign up is OPEN - for time being. Come and have fun.\r\n\r\n------------------------------------------------------------------------[center][img]http://img903.imageshack.us/img903/348/dVmgJc.png[/img]\r\n\r\n \r\n[color=blue][size=4][b]Goosebumps.2015.HDCAM.HQMic.XVID.AC3.Hive-CM8[/b][/size][/color]\r\n\r\nThx Hive\r\n\r\nCM8 Doing It Right The First Time \r\n\r\nSources:\r\n\r\nVideo: Latino HDCAM unmarked\r\nAudio: UnKnOwN, thx my friend, perfect audio\r\n\r\nNotes:\r\n\r\nHOT and Brandnew movie, go get it!!!\r\nLatino Video was very good, scr quality, no movements, no focus issues, bright and sharp, as good as it gets\r\nCouldnt get line for this but UnKnOwN was so nice to let me have his mic so that i can make a perfect release\r\ncould be passed as line but it isnt, doesnt matter cause this mic is so good we dont need line anyways \r\n\r\nEncode:\r\n\r\ndaylight scenes were already bright enough, darker scenes and night scenes were good too, still decided to cut movie in pieces\r\nto get out the perfect vid and raised brightness contrast as needed, and added slightly sharpness\r\nall is in perfect shape\r\n\r\naudio as usual is lipsynced to my video\r\n\r\nwill do me till retail\r\nenjoy\r\n\r\nVideo: 720x294 @bitrate 1800 2pass\r\nAudio: Sweet HQMic Stereo 2.0\r\nSample: yes included\r\n\r\nPS:\r\nto already answer the first comment that would come out for sure:\r\n&quot;is the video complete&quot;, 40secs are missing at runtime 5min-something, the rest is all there, you will survive that\r\n\r\n\r\n \nhttp://www.imdb.com/title/tt1051904/\r\n\r\n\r\n\r\nGeneral\r\nComplete name                  : Goosebumps.2015.HDCAM.HQMic.XVID.AC3.Hive-CM8.avi\r\nFormat                         : AVI\r\nFormat/Info                    : Audio Video Interleave\r\nFile size                      : 1.36 GiB\r\nDuration                       : 1h 34mn\r\nOverall bit rate               : 2 069 Kbps\r\nWriting application            : Nandub v1.0rc2\r\nWriting library                : Nandub build 1853/release\r\n\r\nVideo\r\nID                             : 0\r\nFormat                         : MPEG-4 Visual\r\nFormat profile                 : Advanced   \r\nFormat settings, BVOP          : 2\r\nFormat settings, QPel          : Yes\r\nFormat settings, GMC           : No warppoints\r\nFormat settings, Matrix        : Default (H.263)\r\nMuxing mode                    : Packed bitstream\r\nCodec ID                       : XVID\r\nCodec ID/Hint                  : XviD\r\nDuration                       : 1h 34mn\r\nBit rate                       : 1 802 Kbps\r\nWidth                          : 720 pixels\r\nHeight                         : 294 pixels\r\nDisplay aspect ratio           : 2.40:1\r\nFrame rate                     : 29.970 fps\r\nColor space                    : YUV\r\nChroma subsampling             : 4:2:0\r\nBit depth                      : 8 bits\r\nScan type                      : Progressive\r\nCompression mode               : Lossy\r\nBits/(Pixel*Frame)             : 0.284\r\nStream size                    : 1.18 GiB (87%)\r\nWriting library                : XviD 1.2.1 (UTC 2008-12-04)\r\n\r\nAudio\r\nID                             : 1\r\nFormat                         : AC-3\r\nFormat/Info                    : Audio Coding 3\r\nMode extension                 : CM (complete main)\r\nFormat settings, Endianness    : Big\r\nCodec ID                       : 2000\r\nDuration                       : 1h 34mn\r\nBit rate mode                  : Constant\r\nBit rate                       : 256 Kbps\r\nChannel(s)                     : 2 channels\r\nChannel positions              : Front: L R\r\nSampling rate                  : 48.0 KHz\r\nBit depth                      : 16 bits\r\nCompression mode               : Lossy\r\nStream size                    : 172 MiB (12%)\r\nAlignment                      : Split accross interleaves\r\nInterleave, duration           : 33 ms (1.00 video frame)\r\nInterleave, preload duration   : 500 ms\r\n\r\n\r\n\r\nScreens \r\n\r\n[img]http://img910.imageshack.us/img910/6199/4Wz1z0.png[/img]\r\n[img]http://img907.imageshack.us/img907/8819/VRSzQX.png[/img]\r\n[img]http://img911.imageshack.us/img911/7206/0w9piX.png[/img]\r\n[img]http://img910.imageshack.us/img910/5049/qmHYFt.png[/img]\r\n[img]http://img907.imageshack.us/img907/4013/MpUigP.png[/img]\r\n[img]http://img908.imageshack.us/img908/8729/FpM9bz.png[/img]\r\n[img]http://img633.imageshack.us/img633/4646/2c34cy.png[/img]\r\n\r\n\r\n\r\nPlot\r\n\r\nA teenager teams up with the daughter of young adult horror author R. L. Stine a\r\nfter the writer's imaginary demons are set free on the town of Madison, Delaware.\r\n\r\nCast\r\n\r\nJack Black \t... R. L. Stine / Slappy / Invisible Boy (voice)\r\nDylan Minnette \t... Zach\r\nOdeya Rush \t... Hannah\r\nRyan Lee \t... Champ \r\n\r\n\r\nSugarB,iNCOMiNG,Izzy,MenaceIISociety,jiinx,SiMPLE,CherryBomb\r\nranbailey,ViSiON,UnKnOwN,YanKeeS,COPYxRIGHT,THC,VAiN,ACAB,DRs\r\nLKRG,Kingstoner,ACAB,SiMPLE,TiTAN,cadance,PLAYNOW\r\nUnevano,BigVik,Rapeseed,SAFC,goldadvance,KaN1vE,Pinnz,Wayne,HiGH\r\nSeeN,jtr,Limey,ICONiK,TED,rkofan,mrtoke09,NutSacK BoY lol\r\nMr Hive\r\n\r\n\r\n\r\n\r\nLOOKING FOR ANYTHING YOU WANT TO LOOK AND SOUND BETTER\r\n\r\nCOME FIND US WE DONT BITE \r\n  [/center]","torrent":{"xt":"urn:btih:e94f598df6196b6d22dd40cca495e232b1b12552","amp;dn":"Goosebumps.2015.HDCAM.HQMic.XVID.AC3.Hive-CM8","amp;tr":["udp%3A%2F%2Ftracker.leechers-paradise.org%3A6969","udp%3A%2F%2Fzer0day.ch%3A1337","udp%3A%2F%2Fopen.demonii.com%3A1337","udp%3A%2F%2Ftracker.coppersurfer.tk%3A6969","udp%3A%2F%2Fexodus.desync.com%3A6969"],"infoHash":"e94f598df6196b6d22dd40cca495e232b1b12552","infoHashBuffer":{"type":"Buffer","data":[233,79,89,141,246,25,107,109,34,221,64,204,164,149,226,50,177,177,37,82]},"announce":[],"urlList":[]}}